<svg width="197" height="37" viewBox="0 0 197 37" fill="none" xmlns="http://www.w3.org/2000/svg">
<g clip-path="url(#clip0_153_1571)">
<path fill-rule="evenodd" clip-rule="evenodd" d="M23.646 6.97217C24.4816 6.9722 25.3006 7.20487 26.0114 7.64412C26.7222 8.08337 27.2967 8.71186 27.6705 9.45917L29.7495 13.6157C30.1155 13.4657 30.4755 13.3037 30.8295 13.1297C31.1856 12.9518 31.5977 12.9227 31.9752 13.0488C32.3527 13.1748 32.6647 13.4456 32.8425 13.8017C33.0203 14.1577 33.0494 14.5698 32.9234 14.9473C32.7974 15.3249 32.5266 15.6368 32.1705 15.8147C31.8099 15.9751 31.4474 16.1311 31.083 16.2827L32.5245 19.1672C32.8374 19.7926 33.0002 20.4823 33 21.1817V24.9722C33 25.6053 32.8664 26.2313 32.6079 26.8092C32.3494 27.3872 31.9719 27.9041 31.5 28.3262V30.2222C31.5 30.8189 31.2629 31.3912 30.841 31.8132C30.419 32.2351 29.8467 32.4722 29.25 32.4722C28.6533 32.4722 28.081 32.2351 27.659 31.8132C27.2371 31.3912 27 30.8189 27 30.2222V29.4722H9V30.2222C9 30.8189 8.76295 31.3912 8.34099 31.8132C7.91903 32.2351 7.34674 32.4722 6.75 32.4722C6.15326 32.4722 5.58097 32.2351 5.15901 31.8132C4.73705 31.3912 4.5 30.8189 4.5 30.2222V28.3262C3.579 27.5012 3 26.3042 3 24.9722V21.1802C3.00028 20.4819 3.16307 19.7932 3.4755 19.1687L4.905 16.3067C4.543 16.1547 4.1855 15.9912 3.8325 15.8162C3.47825 15.636 3.20896 15.3239 3.0827 14.9471C2.95643 14.5702 2.9833 14.1589 3.1575 13.8017C3.24549 13.6253 3.36737 13.468 3.51617 13.3388C3.66498 13.2096 3.8378 13.1109 4.02474 13.0485C4.21169 12.9861 4.4091 12.9612 4.6057 12.9751C4.80229 12.989 4.99422 13.0415 5.1705 13.1297C5.5255 13.3047 5.8855 13.4667 6.2505 13.6157L8.3295 9.46067C8.70307 8.71308 9.27745 8.08429 9.98827 7.64476C10.6991 7.20523 11.5183 6.97234 12.354 6.97217H23.646ZM11.25 20.4722C10.6533 20.4722 10.081 20.7092 9.65901 21.1312C9.23705 21.5531 9 22.1254 9 22.7222C9 23.3189 9.23705 23.8912 9.65901 24.3132C10.081 24.7351 10.6533 24.9722 11.25 24.9722C11.8467 24.9722 12.419 24.7351 12.841 24.3132C13.2629 23.8912 13.5 23.3189 13.5 22.7222C13.5 22.1254 13.2629 21.5531 12.841 21.1312C12.419 20.7092 11.8467 20.4722 11.25 20.4722ZM24.75 20.4722C24.1533 20.4722 23.581 20.7092 23.159 21.1312C22.7371 21.5531 22.5 22.1254 22.5 22.7222C22.5 23.3189 22.7371 23.8912 23.159 24.3132C23.581 24.7351 24.1533 24.9722 24.75 24.9722C25.3467 24.9722 25.919 24.7351 26.341 24.3132C26.7629 23.8912 27 23.3189 27 22.7222C27 22.1254 26.7629 21.5531 26.341 21.1312C25.919 20.7092 25.3467 20.4722 24.75 20.4722ZM23.646 9.97217H12.354C12.1071 9.97213 11.864 10.033 11.6463 10.1495C11.4286 10.2659 11.243 10.4343 11.106 10.6397L11.013 10.8017L9.108 14.6087C11.43 15.3047 14.559 15.9722 18 15.9722C21.213 15.9722 24.1515 15.3902 26.415 14.7467L26.8905 14.6087L24.987 10.8017C24.8766 10.5809 24.7134 10.3908 24.512 10.2482C24.3105 10.1056 24.0769 10.0149 23.832 9.98417L23.6475 9.97217H23.646Z" fill="white"/>
</g>
<path d="M196.071 20.6563H190.336V26.5431H186.331V20.6563H180.596V16.9542H186.331V11.0674H190.336V16.9542H196.071V20.6563Z" fill="white"/>
<path d="M177.869 8.42749V11.8564H172.225V29.608H167.977V11.8564H162.333V8.42749H177.869Z" fill="white"/>
<path d="M156.104 29.608L151.522 22.477L147.365 29.608H142.57L149.246 18.9267L142.479 8.42749H147.365L151.947 15.5281L156.074 8.42749H160.868L154.223 19.0784L160.989 29.608H156.104Z" fill="white"/>
<path d="M132.286 11.8562V17.1665H139.417V20.5348H132.286V26.1485H140.327V29.6078H128.038V8.39697H140.327V11.8562H132.286Z" fill="white"/>
<path d="M124.607 29.6078H120.359L110.739 15.0728V29.6078H106.491V8.39697H110.739L120.359 22.9623V8.39697H124.607V29.6078Z" fill="white"/>
<path d="M98.7431 29.608L94.0701 21.3543H92.0673V29.608H87.8191V8.42749H95.7694C97.408 8.42749 98.8038 8.72082 99.9569 9.30748C101.11 9.87391 101.97 10.6528 102.536 11.644C103.123 12.615 103.416 13.7074 103.416 14.9212C103.416 16.3171 103.012 17.5814 102.202 18.7143C101.393 19.8269 100.19 20.5956 98.5914 21.0205L103.659 29.608H98.7431ZM92.0673 18.1681H95.6176C96.7707 18.1681 97.6305 17.895 98.1969 17.3488C98.7634 16.7824 99.0466 16.0035 99.0466 15.0123C99.0466 14.0412 98.7634 13.2927 98.1969 12.7668C97.6305 12.2206 96.7707 11.9475 95.6176 11.9475H92.0673V18.1681Z" fill="white"/>
<path d="M79.8533 25.572H71.4175L70.0217 29.6078H65.561L73.1775 8.39697H78.1237L85.7402 29.6078H81.2492L79.8533 25.572ZM78.7002 22.1734L75.6354 13.3128L72.5706 22.1734H78.7002Z" fill="white"/>
<path d="M43.3098 18.9873C43.3098 16.9036 43.7751 15.0425 44.7057 13.4039C45.6565 11.7451 46.941 10.4605 48.5594 9.55014C50.198 8.61958 52.0288 8.1543 54.0518 8.1543C56.4187 8.1543 58.4922 8.76119 60.2724 9.97497C62.0526 11.1888 63.2967 12.8678 64.0048 15.0122H59.1193C58.6338 14.0007 57.946 13.2421 57.0559 12.7363C56.186 12.2306 55.1745 11.9777 54.0214 11.9777C52.7874 11.9777 51.6849 12.271 50.7139 12.8577C49.7631 13.4241 49.0146 14.2333 48.4684 15.2853C47.9424 16.3372 47.6794 17.5712 47.6794 18.9873C47.6794 20.3831 47.9424 21.6172 48.4684 22.6893C49.0146 23.7413 49.7631 24.5606 50.7139 25.1472C51.6849 25.7137 52.7874 25.9969 54.0214 25.9969C55.1745 25.9969 56.186 25.744 57.0559 25.2383C57.946 24.7123 58.6338 23.9436 59.1193 22.9321H64.0048C63.2967 25.0967 62.0526 26.7858 60.2724 27.9996C58.5124 29.1932 56.4389 29.7899 54.0518 29.7899C52.0288 29.7899 50.198 29.3348 48.5594 28.4244C46.941 27.4939 45.6565 26.2093 44.7057 24.5707C43.7751 22.9321 43.3098 21.071 43.3098 18.9873Z" fill="white"/>
<defs>
<clipPath id="clip0_153_1571">
<rect width="36" height="36" fill="white" transform="translate(0 0.972168)"/>
</clipPath>
</defs>
</svg>
