<svg width="382" height="80" viewBox="0 0 382 80" fill="none" xmlns="http://www.w3.org/2000/svg">
<path d="M79.9291 35.2231C77.5728 15.3826 60.694 0 40.2206 0C18.1339 0 0.226562 17.9039 0.226562 39.9906C0.226562 41.8652 0.357273 43.7365 0.615255 45.5905C0.873236 47.4445 1.25161 49.2125 1.75381 50.9806C2.25602 52.7486 2.86485 54.4203 3.59064 56.0749C4.31643 57.7294 5.13853 59.2979 6.07414 60.8217C7.00975 62.3455 8.02792 63.7902 9.14584 65.1696C10.2638 66.5489 11.4677 67.8457 12.7576 69.0634C14.0475 70.281 15.4165 71.4127 16.8509 72.4481C18.2853 73.4834 19.8091 74.4328 21.3776 75.2721C22.9461 76.1114 24.6006 76.8578 26.2827 77.4839C27.9888 78.1168 29.7362 78.6327 31.5111 79.0283C33.286 79.4239 35.1607 79.7059 37.0113 79.8539C39.6427 80.0637 42.2913 79.988 44.9261 79.9811C46.4637 79.9777 48.0013 79.9811 49.5354 79.9811H80.2111V39.9871C80.2111 38.3739 80.1148 36.7813 79.9291 35.2196V35.2231ZM71.6358 79.9811H61.4026V63.1883C56.3633 67.7975 49.8175 70.7798 42.5906 71.3164C41.8063 71.3749 41.0186 71.4058 40.2206 71.4058C22.8705 71.4058 8.80531 57.3407 8.80531 39.9906C8.80531 22.6405 22.8705 8.5753 40.2206 8.5753C55.9506 8.5753 68.9803 20.1363 71.2781 35.2231C71.512 36.7778 71.6358 38.3704 71.6358 39.9906V79.9811Z" fill="white"/>
<path d="M61.1136 35.2231C58.9466 25.6846 50.416 18.5643 40.2206 18.5643C28.3844 18.5643 18.7909 28.1578 18.7909 39.9906C18.7909 51.8233 28.3844 61.4202 40.2206 61.4202C41.022 61.4202 41.8132 61.3755 42.5906 61.2895C52.2391 60.2301 59.9579 52.7589 61.4026 43.2308C61.5642 42.1748 61.6468 41.0913 61.6468 39.9906C61.6468 38.3532 61.4645 36.7572 61.1136 35.2231ZM42.5906 52.4803C41.8235 52.6282 41.0323 52.7039 40.2206 52.7039C33.2 52.7039 27.5072 47.0111 27.5072 39.9906C27.5072 32.97 33.2 27.2772 40.2206 27.2772C45.5556 27.2772 50.1236 30.5656 52.0052 35.2231C52.6071 36.6953 52.9339 38.3051 52.9339 39.9906C52.9339 46.1993 48.4794 51.3727 42.5906 52.4803Z" fill="white"/>
<path d="M371.18 23.9688H381.773V69.625H371.18V64.8438C366.836 68.9062 362.164 70.9375 357.164 70.9375C350.852 70.9375 345.633 68.6562 341.508 64.0938C337.414 59.4375 335.367 53.625 335.367 46.6562C335.367 39.8125 337.414 34.1094 341.508 29.5469C345.602 24.9844 350.727 22.7031 356.883 22.7031C362.195 22.7031 366.961 24.8906 371.18 29.2656V23.9688ZM346.148 46.6562C346.148 51.0312 347.32 54.5938 349.664 57.3438C352.07 60.125 355.102 61.5156 358.758 61.5156C362.664 61.5156 365.82 60.1719 368.227 57.4844C370.633 54.7031 371.836 51.1719 371.836 46.8906C371.836 42.6094 370.633 39.0781 368.227 36.2969C365.82 33.5781 362.695 32.2188 358.852 32.2188C355.227 32.2188 352.195 33.5938 349.758 36.3438C347.352 39.125 346.148 42.5625 346.148 46.6562Z" fill="white"/>
<path d="M296.602 23.9688L308.414 49.6094L320.18 23.9688H332.039L308.32 72.7656L284.789 23.9688H296.602Z" fill="white"/>
<path d="M232.992 46.4688C232.992 39.875 235.352 34.2656 240.07 29.6406C244.789 25.0156 250.539 22.7031 257.32 22.7031C264.133 22.7031 269.914 25.0312 274.664 29.6875C279.352 34.3438 281.695 40.0625 281.695 46.8438C281.695 53.6875 279.336 59.4219 274.617 64.0469C269.867 68.6406 264.039 70.9375 257.133 70.9375C250.289 70.9375 244.555 68.5938 239.93 63.9062C235.305 59.2812 232.992 53.4688 232.992 46.4688ZM243.773 46.6562C243.773 51.2188 244.992 54.8281 247.43 57.4844C249.93 60.1719 253.227 61.5156 257.32 61.5156C261.445 61.5156 264.742 60.1875 267.211 57.5312C269.68 54.875 270.914 51.3281 270.914 46.8906C270.914 42.4531 269.68 38.9062 267.211 36.25C264.711 33.5625 261.414 32.2188 257.32 32.2188C253.289 32.2188 250.023 33.5625 247.523 36.25C245.023 38.9375 243.773 42.4062 243.773 46.6562Z" fill="white"/>
<path d="M219.117 33.8125V69.625H208.57V33.8125H204.07V23.9688H208.57V7.23438H219.117V23.9688H227.32V33.8125H219.117Z" fill="white"/>
<path d="M166.477 23.9688V50.1719C166.477 57.7344 169.461 61.5156 175.43 61.5156C181.398 61.5156 184.383 57.7344 184.383 50.1719V23.9688H194.93V50.4062C194.93 54.0625 194.477 57.2188 193.57 59.875C192.695 62.25 191.18 64.3906 189.023 66.2969C185.461 69.3906 180.93 70.9375 175.43 70.9375C169.961 70.9375 165.445 69.3906 161.883 66.2969C159.695 64.3906 158.148 62.25 157.242 59.875C156.367 57.75 155.93 54.5938 155.93 50.4062V23.9688H166.477Z" fill="white"/>
<path d="M132.023 23.9688H142.617V69.625H132.023V64.8438C127.68 68.9062 123.008 70.9375 118.008 70.9375C111.695 70.9375 106.477 68.6562 102.352 64.0938C98.2578 59.4375 96.2109 53.625 96.2109 46.6562C96.2109 39.8125 98.2578 34.1094 102.352 29.5469C106.445 24.9844 111.57 22.7031 117.727 22.7031C123.039 22.7031 127.805 24.8906 132.023 29.2656V23.9688ZM106.992 46.6562C106.992 51.0312 108.164 54.5938 110.508 57.3438C112.914 60.125 115.945 61.5156 119.602 61.5156C123.508 61.5156 126.664 60.1719 129.07 57.4844C131.477 54.7031 132.68 51.1719 132.68 46.8906C132.68 42.6094 131.477 39.0781 129.07 36.2969C126.664 33.5781 123.539 32.2188 119.695 32.2188C116.07 32.2188 113.039 33.5938 110.602 36.3438C108.195 39.125 106.992 42.5625 106.992 46.6562Z" fill="white"/>
</svg>
