<svg width="36" height="36" viewBox="0 0 36 36" fill="none" xmlns="http://www.w3.org/2000/svg">
<path fill-rule="evenodd" clip-rule="evenodd" d="M23.646 6.00003C24.4816 6.00006 25.3006 6.23273 26.0114 6.67198C26.7222 7.11124 27.2967 7.73972 27.6705 8.48703L29.7495 12.6435C30.1155 12.4935 30.4755 12.3315 30.8295 12.1575C31.1856 11.9797 31.5977 11.9506 31.9752 12.0766C32.3527 12.2026 32.6647 12.4735 32.8425 12.8295C33.0203 13.1856 33.0494 13.5977 32.9234 13.9752C32.7974 14.3527 32.5266 14.6647 32.1705 14.8425C31.8099 15.003 31.4474 15.159 31.083 15.3105L32.5245 18.195C32.8374 18.8205 33.0002 19.5102 33 20.2095V24C33 24.6332 32.8664 25.2591 32.6079 25.8371C32.3494 26.415 31.9719 26.932 31.5 27.354V29.25C31.5 29.8468 31.2629 30.4191 30.841 30.841C30.419 31.263 29.8467 31.5 29.25 31.5C28.6533 31.5 28.081 31.263 27.659 30.841C27.2371 30.4191 27 29.8468 27 29.25V28.5H9V29.25C9 29.8468 8.76295 30.4191 8.34099 30.841C7.91903 31.263 7.34674 31.5 6.75 31.5C6.15326 31.5 5.58097 31.263 5.15901 30.841C4.73705 30.4191 4.5 29.8468 4.5 29.25V27.354C3.579 26.529 3 25.332 3 24V20.208C3.00028 19.5097 3.16307 18.8211 3.4755 18.1965L4.905 15.3345C4.543 15.1825 4.1855 15.019 3.8325 14.844C3.47825 14.6639 3.20896 14.3518 3.0827 13.9749C2.95643 13.5981 2.9833 13.1867 3.1575 12.8295C3.24549 12.6532 3.36737 12.4959 3.51617 12.3667C3.66498 12.2374 3.8378 12.1388 4.02474 12.0764C4.21169 12.014 4.4091 11.989 4.6057 12.0029C4.80229 12.0169 4.99422 12.0694 5.1705 12.1575C5.5255 12.3325 5.8855 12.4945 6.2505 12.6435L8.3295 8.48853C8.70307 7.74094 9.27745 7.11215 9.98827 6.67262C10.6991 6.2331 11.5183 6.0002 12.354 6.00003H23.646ZM11.25 19.5C10.6533 19.5 10.081 19.7371 9.65901 20.159C9.23705 20.581 9 21.1533 9 21.75C9 22.3468 9.23705 22.9191 9.65901 23.341C10.081 23.763 10.6533 24 11.25 24C11.8467 24 12.419 23.763 12.841 23.341C13.2629 22.9191 13.5 22.3468 13.5 21.75C13.5 21.1533 13.2629 20.581 12.841 20.159C12.419 19.7371 11.8467 19.5 11.25 19.5ZM24.75 19.5C24.1533 19.5 23.581 19.7371 23.159 20.159C22.7371 20.581 22.5 21.1533 22.5 21.75C22.5 22.3468 22.7371 22.9191 23.159 23.341C23.581 23.763 24.1533 24 24.75 24C25.3467 24 25.919 23.763 26.341 23.341C26.7629 22.9191 27 22.3468 27 21.75C27 21.1533 26.7629 20.581 26.341 20.159C25.919 19.7371 25.3467 19.5 24.75 19.5ZM23.646 9.00003H12.354C12.1071 8.99999 11.864 9.0609 11.6463 9.17734C11.4286 9.29378 11.243 9.46216 11.106 9.66753L11.013 9.82953L9.108 13.6365C11.43 14.3325 14.559 15 18 15C21.213 15 24.1515 14.418 26.415 13.7745L26.8905 13.6365L24.987 9.82953C24.8766 9.60875 24.7134 9.41863 24.512 9.27603C24.3105 9.13342 24.0769 9.04274 23.832 9.01203L23.6475 9.00003H23.646Z" fill="white"/>
</svg>
