<svg width="81" height="80" viewBox="0 0 81 80" fill="none" xmlns="http://www.w3.org/2000/svg">
<path d="M79.9291 35.2231C77.5728 15.3826 60.694 0 40.2206 0C18.1339 0 0.226562 17.9039 0.226562 39.9906C0.226562 41.8652 0.357273 43.7365 0.615255 45.5905C0.873236 47.4445 1.25161 49.2125 1.75381 50.9806C2.25602 52.7486 2.86485 54.4203 3.59064 56.0749C4.31643 57.7294 5.13853 59.2979 6.07414 60.8217C7.00975 62.3455 8.02792 63.7902 9.14584 65.1696C10.2638 66.5489 11.4677 67.8457 12.7576 69.0634C14.0475 70.281 15.4165 71.4127 16.8509 72.4481C18.2853 73.4834 19.8091 74.4328 21.3776 75.2721C22.9461 76.1114 24.6006 76.8578 26.2827 77.4839C27.9888 78.1168 29.7362 78.6327 31.5111 79.0283C33.286 79.4239 35.1607 79.7059 37.0113 79.8539C39.6427 80.0637 42.2913 79.988 44.9261 79.9811C46.4637 79.9777 48.0013 79.9811 49.5354 79.9811H80.2111V39.9871C80.2111 38.3739 80.1148 36.7813 79.9291 35.2196V35.2231ZM71.6358 79.9811H61.4026V63.1883C56.3633 67.7975 49.8175 70.7798 42.5906 71.3164C41.8063 71.3749 41.0186 71.4058 40.2206 71.4058C22.8705 71.4058 8.80531 57.3407 8.80531 39.9906C8.80531 22.6405 22.8705 8.5753 40.2206 8.5753C55.9506 8.5753 68.9803 20.1363 71.2781 35.2231C71.512 36.7778 71.6358 38.3704 71.6358 39.9906V79.9811Z" fill="white"/>
<path d="M61.1136 35.2231C58.9466 25.6846 50.416 18.5643 40.2206 18.5643C28.3844 18.5643 18.7909 28.1578 18.7909 39.9906C18.7909 51.8233 28.3844 61.4202 40.2206 61.4202C41.022 61.4202 41.8132 61.3755 42.5906 61.2895C52.2391 60.2301 59.9579 52.7589 61.4026 43.2308C61.5642 42.1748 61.6468 41.0913 61.6468 39.9906C61.6468 38.3532 61.4645 36.7572 61.1136 35.2231ZM42.5906 52.4803C41.8235 52.6282 41.0323 52.7039 40.2206 52.7039C33.2 52.7039 27.5072 47.0111 27.5072 39.9906C27.5072 32.97 33.2 27.2772 40.2206 27.2772C45.5556 27.2772 50.1236 30.5656 52.0052 35.2231C52.6071 36.6953 52.9339 38.3051 52.9339 39.9906C52.9339 46.1993 48.4794 51.3727 42.5906 52.4803Z" fill="white"/>
</svg>
