<svg width="121" height="120" viewBox="0 0 121 120" fill="none" xmlns="http://www.w3.org/2000/svg">
<g clip-path="url(#clip0_248_2083)">
<path d="M17.6461 45C17.4405 44.9999 17.2356 44.9747 17.0361 44.925L6.95277 42.425C6.62501 42.3519 6.3153 42.2145 6.04185 42.0209C5.76839 41.8274 5.5367 41.5816 5.36039 41.298C5.18408 41.0144 5.06671 40.6987 5.01518 40.3695C4.96365 40.0402 4.979 39.7041 5.06032 39.3808C5.14164 39.0576 5.2873 38.7537 5.48873 38.487C5.69016 38.2204 5.94331 37.9964 6.23328 37.8281C6.52326 37.6599 6.84422 37.5508 7.1773 37.5074C7.51038 37.4639 7.84886 37.4869 8.17285 37.575L18.2562 40.075C18.8522 40.2231 19.3731 40.582 19.7211 41.0843C20.069 41.5865 20.22 42.1975 20.1457 42.8023C20.0714 43.4072 19.7769 43.9644 19.3176 44.3691C18.8582 44.7738 18.2606 44.9981 17.6461 45ZM103.354 45C102.74 44.9993 102.146 44.7758 101.686 44.3715C101.226 43.9672 100.93 43.4101 100.855 42.8048C100.78 42.1996 100.931 41.5881 101.279 41.0853C101.627 40.5825 102.148 40.2232 102.744 40.075L112.828 37.575C113.152 37.4869 113.49 37.4639 113.823 37.5074C114.156 37.5508 114.477 37.6599 114.767 37.8281C115.057 37.9964 115.31 38.2204 115.512 38.487C115.713 38.7537 115.859 39.0576 115.94 39.3808C116.022 39.7041 116.037 40.0402 115.985 40.3695C115.934 40.6987 115.817 41.0144 115.64 41.298C115.464 41.5816 115.232 41.8274 114.959 42.0209C114.685 42.2145 114.376 42.3519 114.048 42.425L103.965 44.925C103.765 44.9747 103.56 44.9999 103.354 45Z" fill="#5856D6"/>
<path d="M5.04167 105H15.125C16.4621 105 17.7445 104.473 18.69 103.536C19.6355 102.598 20.1667 101.326 20.1667 100V70H5.04167C3.70453 70 2.42217 70.5268 1.47667 71.4645C0.531174 72.4021 0 73.6739 0 75L0 100C0 101.326 0.531174 102.598 1.47667 103.536C2.42217 104.473 3.70453 105 5.04167 105Z" fill="#1D2939"/>
<path opacity="0.2" d="M15.125 103.75H5.04167C3.70453 103.75 2.42217 103.223 1.47667 102.286C0.531174 101.348 0 100.076 0 98.75V100C0 101.326 0.531174 102.598 1.47667 103.536C2.42217 104.473 3.70453 105 5.04167 105H15.125C16.4621 105 17.7445 104.473 18.69 103.536C19.6355 102.598 20.1667 101.326 20.1667 100V98.75C20.1667 100.076 19.6355 101.348 18.69 102.286C17.7445 103.223 16.4621 103.75 15.125 103.75Z" fill="#070C0F"/>
<path d="M100.833 70V100C100.833 101.326 101.364 102.598 102.31 103.536C103.255 104.473 104.538 105 105.875 105H115.958C117.295 105 118.578 104.473 119.523 103.536C120.469 102.598 121 101.326 121 100V75C121 73.6739 120.469 72.4021 119.523 71.4645C118.578 70.5268 117.295 70 115.958 70H100.833Z" fill="#1D2939"/>
<path opacity="0.2" d="M115.958 103.75H105.875C104.538 103.75 103.255 103.223 102.31 102.286C101.364 101.348 100.833 100.076 100.833 98.75V100C100.833 101.326 101.364 102.598 102.31 103.536C103.255 104.473 104.538 105 105.875 105H115.958C117.295 105 118.578 104.473 119.523 103.536C120.469 102.598 121 101.326 121 100V98.75C121 100.076 120.469 101.348 119.523 102.286C118.578 103.223 117.295 103.75 115.958 103.75Z" fill="#070C0F"/>
<path d="M120.622 65.945C120.193 60.875 119.402 56.16 118.202 53.855C117.168 51.875 114.39 49.305 110.276 45.605C109.318 44.755 105.729 41.58 105.547 41.27C105.22 40.695 104.448 39.215 103.44 37.27C97.8134 26.485 94.2237 19.91 92.5347 18.23C91.7281 17.43 89.2728 15 60.5 15C31.7272 15 29.2719 17.43 28.4652 18.23C26.7763 19.91 23.1866 26.48 17.5601 37.275C16.5518 39.215 15.7804 40.695 15.4527 41.265C15.2712 41.58 10.9959 45.355 10.9959 45.355C6.72054 49.195 3.84175 51.855 2.80317 53.85C0.87725 57.54 0 67.4 0 75C0 80.99 0.4235 91.455 3.25692 94.27C6.39283 97.375 40.6459 100 60.5 100C80.349 100 114.607 97.375 117.743 94.27C120.576 91.455 121 80.99 121 75C121 72.15 120.879 68.985 120.622 65.945Z" fill="#FDB913"/>
<path d="M120.622 65.945C120.193 60.875 119.402 56.16 118.202 53.855C117.168 51.875 114.39 49.305 110.276 45.605C109.318 44.755 105.729 41.58 105.547 41.27C105.22 40.695 104.448 39.215 103.44 37.27C97.8134 26.485 94.2237 19.91 92.5347 18.23C91.7281 17.43 89.2728 15 60.5 15C31.7272 15 29.2719 17.43 28.4652 18.23C26.7763 19.91 23.1866 26.48 17.5601 37.275C16.5518 39.215 15.7804 40.695 15.4527 41.265C15.2712 41.58 10.9959 45.355 10.9959 45.355C6.72054 49.195 3.84175 51.855 2.80317 53.85C0.87725 57.54 0 67.4 0 75C0 80.99 0.4235 91.455 3.25692 94.27C6.39283 97.375 40.6459 100 60.5 100C80.349 100 114.607 97.375 117.743 94.27C120.576 91.455 121 80.99 121 75C121 72.15 120.879 68.985 120.622 65.945ZM31.8532 21.915C33.7691 20.8 45.8187 20 60.5 20C75.1813 20 87.2259 20.805 88.9652 21.77C90.4374 23.23 96.6286 35.1 98.9578 39.57L100.037 41.625C93.4624 40.9 81.2364 40 60.5 40C39.7636 40 27.5376 40.895 20.9632 41.625L22.0422 39.575C24.3714 35.1 30.5626 23.225 31.8532 21.915Z" fill="#5856D6"/>
<path d="M117.743 94.27C116.432 95.565 109.676 96.77 100.833 97.745V100C100.833 101.326 101.364 102.598 102.31 103.536C103.255 104.473 104.538 105 105.875 105H115.958C117.295 105 118.578 104.473 119.523 103.536C120.469 102.598 121 101.326 121 100V75C121 80.99 120.576 91.455 117.743 94.27Z" fill="url(#paint0_linear_248_2083)"/>
<path opacity="0.1" d="M60.4999 98.75C40.6055 98.75 6.51882 96.2 2.4502 93.155C2.68715 93.58 2.97453 93.985 3.25686 94.27C6.39278 97.375 40.6459 100 60.4999 100C80.349 100 114.607 97.375 117.743 94.27C118.06 93.9349 118.331 93.5601 118.55 93.155C114.481 96.205 80.3944 98.75 60.4999 98.75Z" fill="#070C0F"/>
<path opacity="0.2" d="M60.4998 41.25C81.2361 41.25 94.1529 42.215 100.722 42.95L100.037 41.625C93.321 40.91 80.5858 40 60.4998 40C40.4138 40 27.6785 40.91 20.963 41.625L20.2773 42.945C26.8466 42.215 39.7634 41.25 60.4998 41.25Z" fill="white"/>
<path d="M60.4996 40C81.236 40 93.4621 40.895 100.036 41.625L98.9575 39.575C96.6282 35.1 90.4371 23.225 88.9649 21.77C87.2255 20.8 75.181 20 60.4996 20C45.8183 20 33.7738 20.805 31.8529 21.915C30.5622 23.23 24.3711 35.1 22.0418 39.57L20.9629 41.625C27.5372 40.9 39.7633 40 60.4996 40Z" fill="#97C6D5"/>
<path d="M60.5003 55C20.167 55 20.167 57.1 20.167 60C20.167 62.925 24.4776 75.025 32.0149 77.385C38.3876 79.38 55.1259 80 60.5003 80C65.8747 80 82.6131 79.38 88.9857 77.385C96.523 75.025 100.834 62.925 100.834 60C100.834 57.1 100.834 55 60.5003 55Z" fill="#1D2939"/>
<path opacity="0.1" d="M60.5003 56.25C96.7398 56.25 100.405 57.95 100.783 60.395C100.788 60.28 100.834 60.095 100.834 60C100.834 57.1 100.834 55 60.5003 55C20.167 55 20.167 57.1 20.167 60C20.167 60.1 20.2124 60.28 20.2174 60.395C20.5955 57.945 24.2608 56.25 60.5003 56.25Z" fill="#070C0F"/>
<path d="M60.5003 55C20.167 55 20.167 57.1 20.167 60C20.167 62.925 24.4776 75.025 32.0149 77.385C38.3876 79.38 55.1259 80 60.5003 80C65.8747 80 82.6131 79.38 88.9857 77.385C96.523 75.025 100.834 62.925 100.834 60C100.834 57.1 100.834 55 60.5003 55Z" fill="url(#paint1_linear_248_2083)"/>
<path d="M105.875 90C103.097 90 100.833 87.755 100.833 85C100.833 82.245 103.097 80 105.875 80C108.653 80 110.916 82.245 110.916 85C110.916 87.755 108.653 90 105.875 90ZM15.1247 90C12.3467 90 10.083 87.755 10.083 85C10.083 82.245 12.3467 80 15.1247 80C17.9026 80 20.1663 82.245 20.1663 85C20.1663 87.755 17.9026 90 15.1247 90ZM95.7913 92.5C94.8435 88.06 91.5765 85 87.9364 85H32.4781C28.838 85 26.1508 88.06 25.208 92.5C25.208 92.5 40.333 95 60.4997 95C80.6663 95 95.7913 92.5 95.7913 92.5Z" fill="#1D2939"/>
<path opacity="0.1" d="M32.4781 86.25H87.9364C91.2337 86.25 94.2133 88.78 95.4485 92.55L95.7913 92.5C94.8435 88.06 91.5765 85 87.9364 85H32.4781C28.838 85 26.1508 88.06 25.208 92.5L25.5357 92.55C26.6802 88.775 29.1808 86.25 32.4781 86.25Z" fill="#070C0F"/>
<path d="M95.7913 92.5C94.8435 88.06 91.5765 85 87.9364 85H32.4781C28.838 85 26.1508 88.06 25.208 92.5C25.208 92.5 40.333 95 60.4997 95C80.6663 95 95.7913 92.5 95.7913 92.5Z" fill="url(#paint2_linear_248_2083)"/>
<path d="M22.4654 72.31C17.1647 71.9157 11.9132 71.0268 6.78077 69.655C5.62407 69.3495 4.61508 68.6451 3.93498 67.6682C3.25488 66.6913 2.94823 65.5059 3.0701 64.325C3.21631 62.96 3.38268 61.685 3.57427 60.535C3.67936 59.8758 3.91673 59.2441 4.27234 58.6775C4.62795 58.1109 5.09456 57.6207 5.64456 57.2361C6.19457 56.8515 6.81678 56.5802 7.47438 56.4383C8.13198 56.2964 8.8116 56.2868 9.47302 56.41C12.1451 56.9 17.6758 58.15 17.6758 58.59C17.6758 60.975 19.4101 67.75 22.4654 72.31ZM98.5341 72.31C101.589 67.75 103.354 62.39 103.354 60C103.354 59.565 103.354 58.96 103.188 58.3C105.814 57.555 108.728 56.935 111.355 56.445C112.018 56.3212 112.7 56.3312 113.359 56.4744C114.019 56.6176 114.642 56.8909 115.193 57.2782C115.743 57.6655 116.209 58.1588 116.563 58.7286C116.918 59.2985 117.152 59.9332 117.254 60.595C117.44 61.8 117.617 63.065 117.768 64.225C117.93 65.4248 117.645 66.642 116.967 67.6482C116.288 68.6544 115.263 69.3804 114.083 69.69C110.12 70.74 104.69 71.865 98.5341 72.31Z" fill="#F2F2F2"/>
<path d="M22.4654 72.31C17.1647 71.9157 11.9132 71.0268 6.78077 69.655C5.62407 69.3495 4.61508 68.6451 3.93498 67.6682C3.25488 66.6913 2.94823 65.5059 3.0701 64.325C3.21631 62.96 3.38268 61.685 3.57427 60.535C3.67936 59.8758 3.91673 59.2441 4.27234 58.6775C4.62795 58.1109 5.09456 57.6207 5.64456 57.2361C6.19457 56.8515 6.81678 56.5802 7.47438 56.4383C8.13198 56.2964 8.8116 56.2868 9.47302 56.41C12.1451 56.9 17.6758 58.15 17.6758 58.59C17.6758 60.975 19.4101 67.75 22.4654 72.31Z" fill="url(#paint3_linear_248_2083)"/>
<path d="M98.5342 72.31C101.589 67.75 103.354 62.39 103.354 60C103.354 59.565 103.354 58.96 103.188 58.3C105.814 57.555 108.728 56.935 111.355 56.445C112.018 56.3212 112.7 56.3313 113.359 56.4744C114.019 56.6176 114.642 56.8909 115.193 57.2782C115.743 57.6655 116.209 58.1588 116.564 58.7287C116.918 59.2985 117.152 59.9332 117.254 60.595C117.44 61.8 117.617 63.065 117.768 64.225C117.93 65.4248 117.645 66.642 116.967 67.6482C116.288 68.6544 115.263 69.3804 114.083 69.69C110.12 70.74 104.69 71.865 98.5342 72.31Z" fill="url(#paint4_linear_248_2083)"/>
<path d="M52.9375 61.275L54.0668 66.71C54.2199 67.6301 54.6976 68.4664 55.4146 69.0698C56.1316 69.6732 57.0413 70.0044 57.9817 70.0044C58.922 70.0044 59.8318 69.6732 60.5488 69.0698C61.2658 68.4664 61.7435 67.6301 61.8965 66.71L63.0208 61.275C63.0208 61.275 60.5 60 57.9792 60C55.4583 60 52.9375 61.275 52.9375 61.275Z" fill="#E6E6E6"/>
<path d="M55.458 63.135L56.0227 65.855C56.0976 66.316 56.3355 66.7356 56.694 67.0384C57.0525 67.3412 57.508 67.5075 57.9788 67.5075C58.4497 67.5075 58.9052 67.3412 59.2637 67.0384C59.6221 66.7356 59.8601 66.316 59.935 65.855L60.4997 63.135C60.4997 63.135 59.2393 62.5 57.9788 62.5C56.7184 62.5 55.458 63.135 55.458 63.135Z" fill="url(#paint5_linear_248_2083)"/>
<path opacity="0.2" d="M2.80317 55.1C3.84175 53.11 6.72054 50.445 10.9959 46.605C10.9959 46.605 15.2712 42.83 15.4527 42.515C15.7804 41.945 16.5518 40.465 17.5601 38.525C23.1917 27.735 26.7763 21.16 28.4652 19.48C29.2719 18.68 31.7272 16.25 60.5 16.25C89.2728 16.25 91.7281 18.68 92.5347 19.48C94.2237 21.16 97.8134 27.73 103.44 38.525C104.448 40.465 105.22 41.945 105.547 42.52C105.729 42.83 109.323 46 110.276 46.86C114.39 50.555 117.168 53.125 118.197 55.105C119.402 57.405 120.193 62.125 120.617 67.195C120.869 70.095 120.98 73.105 120.99 75.855L121 75C121 72.15 120.879 68.985 120.622 65.945C120.193 60.875 119.402 56.16 118.202 53.855C117.168 51.875 114.39 49.305 110.276 45.605C109.318 44.755 105.729 41.58 105.547 41.27C105.22 40.695 104.448 39.215 103.44 37.27C97.8134 26.485 94.2237 19.91 92.5347 18.23C91.7281 17.43 89.2728 15 60.5 15C31.7272 15 29.2719 17.43 28.4652 18.23C26.7763 19.91 23.1866 26.48 17.5601 37.275C16.5518 39.215 15.7804 40.695 15.4527 41.265C15.2712 41.58 10.9959 45.355 10.9959 45.355C6.72054 49.195 3.84175 51.855 2.80317 53.85C0.87725 57.54 0 67.4 0 75L0.00504167 75.74C0.045375 68.215 0.917583 58.71 2.80317 55.1Z" fill="white"/>
<path d="M60.4996 40C81.236 40 93.4621 40.895 100.036 41.625L98.9575 39.575C96.6282 35.1 90.4371 23.225 88.9649 21.77C87.2255 20.8 75.181 20 60.4996 20C45.8183 20 33.7738 20.805 31.8529 21.915C30.5622 23.23 24.3711 35.1 22.0418 39.57L20.9629 41.625C27.5372 40.9 39.7633 40 60.4996 40Z" fill="url(#paint6_linear_248_2083)"/>
<path d="M22.4654 72.31C17.1647 71.9157 11.9132 71.0268 6.78077 69.655C5.62407 69.3495 4.61508 68.6451 3.93498 67.6682C3.25488 66.6913 2.94823 65.5059 3.0701 64.325C3.21631 62.96 3.38268 61.685 3.57427 60.535C3.67936 59.8758 3.91673 59.2441 4.27234 58.6775C4.62795 58.1109 5.09456 57.6207 5.64456 57.2361C6.19457 56.8515 6.81678 56.5802 7.47438 56.4383C8.13198 56.2964 8.8116 56.2868 9.47302 56.41C12.1451 56.9 17.6758 58.15 17.6758 58.59C17.6758 60.975 19.4101 67.75 22.4654 72.31Z" fill="url(#paint7_linear_248_2083)"/>
<path d="M98.5342 72.31C101.589 67.75 103.354 62.39 103.354 60C103.354 59.565 103.354 58.96 103.188 58.3C105.814 57.555 108.728 56.935 111.355 56.445C112.018 56.3212 112.7 56.3313 113.359 56.4744C114.019 56.6176 114.642 56.8909 115.193 57.2782C115.743 57.6655 116.209 58.1588 116.564 58.7287C116.918 59.2985 117.152 59.9332 117.254 60.595C117.44 61.8 117.617 63.065 117.768 64.225C117.93 65.4248 117.645 66.642 116.967 67.6482C116.288 68.6544 115.263 69.3804 114.083 69.69C110.12 70.74 104.69 71.865 98.5342 72.31Z" fill="url(#paint8_linear_248_2083)"/>
<path d="M3.25684 94.27L14.0813 105H15.1249C16.4621 105 17.7444 104.473 18.6899 103.536C19.6354 102.598 20.1666 101.326 20.1666 100V97.75C11.3285 96.775 4.56767 95.565 3.25684 94.27Z" fill="url(#paint9_linear_248_2083)"/>
<path d="M18.6892 81.465C18.6085 81.385 18.5026 81.36 18.4169 81.285C18.9602 81.7435 19.3977 82.3126 19.6995 82.9536C20.0014 83.5946 20.1606 84.2925 20.1664 85C20.1664 87.755 17.9027 90 15.1247 90C14.4126 89.9942 13.7101 89.8367 13.0646 89.5383C12.4192 89.2398 11.846 88.8073 11.3838 88.27C11.4544 88.35 11.4846 88.455 11.5602 88.535L20.9377 97.835C25.7273 98.345 31.0715 98.785 36.5064 99.135L18.6892 81.465Z" fill="url(#paint10_linear_248_2083)"/>
<path d="M119.316 91.26L109.439 81.46C109.359 81.385 109.253 81.36 109.167 81.285C109.71 81.7435 110.148 82.3126 110.45 82.9536C110.751 83.5946 110.911 84.2925 110.916 85C110.916 87.755 108.653 90 105.875 90C105.163 89.9942 104.46 89.8367 103.815 89.5383C103.169 89.2398 102.596 88.8073 102.134 88.27C102.204 88.35 102.235 88.455 102.31 88.535L110.306 96.465C114.244 95.785 116.961 95.04 117.743 94.265C118.388 93.625 118.897 92.55 119.316 91.26Z" fill="url(#paint11_linear_248_2083)"/>
<path d="M120.622 65.945C120.193 60.875 119.402 56.16 118.202 53.855C117.168 51.875 114.39 49.305 110.276 45.605L108.31 43.85L114.048 42.425C114.375 42.3519 114.685 42.2145 114.958 42.0209C115.232 41.8274 115.464 41.5816 115.64 41.298C115.816 41.0144 115.934 40.6987 115.985 40.3695C116.037 40.0402 116.021 39.7041 115.94 39.3808C115.859 39.0576 115.713 38.7537 115.512 38.487C115.31 38.2204 115.057 37.9964 114.767 37.8281C114.477 37.6599 114.156 37.5508 113.823 37.5074C113.49 37.4639 113.151 37.4869 112.827 37.575L104.655 39.6L103.44 37.275C97.8134 26.485 94.2237 19.91 92.5347 18.23C91.7281 17.43 89.2728 15 60.5 15C31.7272 15 29.2719 17.43 28.4652 18.23C26.7763 19.91 23.1866 26.48 17.5601 37.275L16.3501 39.6L8.17254 37.575C7.84855 37.4869 7.51007 37.4639 7.17699 37.5074C6.84391 37.5508 6.52295 37.6599 6.23297 37.8281C5.94299 37.9964 5.68985 38.2204 5.48842 38.487C5.28699 38.7537 5.14133 39.0576 5.06001 39.3808C4.97869 39.7041 4.96334 40.0402 5.01487 40.3695C5.0664 40.6987 5.18377 41.0144 5.36008 41.298C5.53639 41.5816 5.76808 41.8274 6.04154 42.0209C6.31499 42.2145 6.6247 42.3519 6.95246 42.425L12.6899 43.845L10.9959 45.355C6.72054 49.195 3.84175 51.855 2.80317 53.85C0.87725 57.54 0 67.4 0 75V100C0 101.326 0.531174 102.598 1.47667 103.536C2.42217 104.473 3.70453 105 5.04167 105H15.125C16.4621 105 17.7445 104.473 18.69 103.536C19.6355 102.598 20.1667 101.326 20.1667 100V97.75C32.5087 99.105 48.9344 100 60.5 100C72.0656 100 88.4913 99.105 100.833 97.75V100C100.833 101.326 101.365 102.598 102.31 103.536C103.255 104.473 104.538 105 105.875 105H115.958C117.295 105 118.578 104.473 119.523 103.536C120.469 102.598 121 101.326 121 100V75C121 72.15 120.879 68.985 120.622 65.945Z" fill="url(#paint12_linear_248_2083)"/>
</g>
<defs>
<linearGradient id="paint0_linear_248_2083" x1="109.853" y1="87.485" x2="120.572" y2="98.289" gradientUnits="userSpaceOnUse">
<stop stop-opacity="0.1"/>
<stop offset="1" stop-opacity="0"/>
</linearGradient>
<linearGradient id="paint1_linear_248_2083" x1="40.5" y1="43.14" x2="75.6138" y2="78.5464" gradientUnits="userSpaceOnUse">
<stop stop-opacity="0.1"/>
<stop offset="1" stop-opacity="0"/>
</linearGradient>
<linearGradient id="paint2_linear_248_2083" x1="44.0084" y1="74.885" x2="72.8324" y2="103.944" gradientUnits="userSpaceOnUse">
<stop stop-opacity="0.1"/>
<stop offset="1" stop-opacity="0"/>
</linearGradient>
<linearGradient id="paint3_linear_248_2083" x1="6.02956" y1="58.43" x2="18.6391" y2="71.1446" gradientUnits="userSpaceOnUse">
<stop stop-opacity="0"/>
<stop offset="1" stop-opacity="0.1"/>
</linearGradient>
<linearGradient id="paint4_linear_248_2083" x1="102.396" y1="60.31" x2="111.556" y2="69.546" gradientUnits="userSpaceOnUse">
<stop stop-opacity="0"/>
<stop offset="1" stop-opacity="0.1"/>
</linearGradient>
<linearGradient id="paint5_linear_248_2083" x1="56.2495" y1="62.76" x2="59.2844" y2="65.8252" gradientUnits="userSpaceOnUse">
<stop stop-opacity="0.1"/>
<stop offset="1" stop-opacity="0"/>
</linearGradient>
<linearGradient id="paint6_linear_248_2083" x1="30.8748" y1="20.555" x2="95.628" y2="51.0017" gradientUnits="userSpaceOnUse">
<stop stop-color="white" stop-opacity="0.4"/>
<stop offset="1" stop-color="white" stop-opacity="0"/>
</linearGradient>
<linearGradient id="paint7_linear_248_2083" x1="3.5541" y1="60.11" x2="23.7361" y2="69.5983" gradientUnits="userSpaceOnUse">
<stop stop-color="white" stop-opacity="0.4"/>
<stop offset="1" stop-color="white" stop-opacity="0"/>
</linearGradient>
<linearGradient id="paint8_linear_248_2083" x1="101.352" y1="62.2" x2="116.292" y2="69.225" gradientUnits="userSpaceOnUse">
<stop stop-color="white" stop-opacity="0.4"/>
<stop offset="1" stop-color="white" stop-opacity="0"/>
</linearGradient>
<linearGradient id="paint9_linear_248_2083" x1="7.26496" y1="91.595" x2="16.9896" y2="101.401" gradientUnits="userSpaceOnUse">
<stop stop-opacity="0.1"/>
<stop offset="1" stop-opacity="0"/>
</linearGradient>
<linearGradient id="paint10_linear_248_2083" x1="15.8507" y1="85.72" x2="30.0152" y2="100.003" gradientUnits="userSpaceOnUse">
<stop stop-opacity="0.1"/>
<stop offset="1" stop-opacity="0"/>
</linearGradient>
<linearGradient id="paint11_linear_248_2083" x1="106.223" y1="85.345" x2="114.722" y2="93.9155" gradientUnits="userSpaceOnUse">
<stop stop-opacity="0.1"/>
<stop offset="1" stop-opacity="0"/>
</linearGradient>
<linearGradient id="paint12_linear_248_2083" x1="4.24004" y1="41.15" x2="122.949" y2="96.9697" gradientUnits="userSpaceOnUse">
<stop stop-color="white" stop-opacity="0.2"/>
<stop offset="1" stop-color="white" stop-opacity="0"/>
</linearGradient>
<clipPath id="clip0_248_2083">
<rect width="121" height="120" fill="white"/>
</clipPath>
</defs>
</svg>
