<svg width="25" height="24" viewBox="0 0 25 24" fill="none" xmlns="http://www.w3.org/2000/svg">
<g clip-path="url(#clip0_252_8162)">
<path d="M16.5004 16L12.5004 12M12.5004 12L8.50045 16M12.5004 12V21M20.8904 18.39C21.8658 17.8583 22.6363 17.0169 23.0803 15.9986C23.5244 14.9804 23.6167 13.8432 23.3427 12.7667C23.0686 11.6901 22.4439 10.7355 21.5671 10.0534C20.6903 9.37138 19.6113 9.00073 18.5004 9H17.2404C16.9378 7.82924 16.3736 6.74233 15.5904 5.82099C14.8072 4.89965 13.8253 4.16785 12.7185 3.68061C11.6118 3.19336 10.409 2.96336 9.20057 3.00788C7.99213 3.05241 6.80952 3.3703 5.74163 3.93766C4.67374 4.50503 3.74836 5.3071 3.03507 6.28358C2.32178 7.26006 1.83914 8.38554 1.62343 9.57539C1.40772 10.7653 1.46455 11.9885 1.78966 13.1533C2.11477 14.318 2.69969 15.3939 3.50045 16.3" stroke="#FF5722" stroke-width="2" stroke-linecap="round" stroke-linejoin="round"/>
</g>
<defs>
<clipPath id="clip0_252_8162">
<rect width="24" height="24" fill="white" transform="translate(0.5)"/>
</clipPath>
</defs>
</svg>
